<?xml version="1.0" standalone="no"?>
<!DOCTYPE svg PUBLIC "-//W3C//DTD SVG 20010904//EN"
 "http://www.w3.org/TR/2001/REC-SVG-20010904/DTD/svg10.dtd">
<svg version="1.0" xmlns="http://www.w3.org/2000/svg"
 width="64pt" height="64pt" viewBox="0 0 150 150"
 preserveAspectRatio="xMidYMid meet">
<g transform="translate(0.000000,180.000000) scale(0.100000,-0.100000)"
fill="#000000" stroke="none">
<path d="M607 1383 c-4 -3 -7 -124 -7 -267 l1 -261 79 -85 80 -85 0 87 0 88
178 2 177 3 3 48 c5 76 4 77 -189 77 l-169 0 0 130 0 130 203 2 202 3 0 65 0
65 -276 3 c-151 1 -278 -1 -282 -5z"/>
<path d="M951 481 l64 -70 90 2 90 2 0 65 0 65 -154 3 -154 3 64 -70z"/>
</g>
</svg>
