<?xml version="1.0" standalone="no"?>
<!DOCTYPE svg PUBLIC "-//W3C//DTD SVG 20010904//EN"
 "http://www.w3.org/TR/2001/REC-SVG-20010904/DTD/svg10.dtd">
<svg version="1.0" xmlns="http://www.w3.org/2000/svg"
 width="600.000000pt" height="600.000000pt" viewBox="0 0 600.000000 600.000000"
 preserveAspectRatio="xMidYMid meet">
<metadata>
Created by potrace 1.11, written by Peter Selinger 2001-2013
</metadata>
<g transform="translate(0.000000,600.000000) scale(0.100000,-0.100000)"
fill="#000000" stroke="none">
<path d="M2022 4607 l-32 -33 0 -858 0 -857 268 -285 267 -285 3 286 2 285
573 0 573 0 27 28 27 28 0 160 0 160 -28 27 -28 27 -572 0 -572 0 0 440 0 440
658 0 658 0 27 28 27 28 0 175 0 175 -33 32 -33 32 -890 0 -890 0 -32 -33z"/>
<path d="M3011 1773 c29 -32 115 -123 190 -203 75 -80 149 -160 164 -177 l27
-33 282 0 282 0 27 28 27 28 0 175 0 175 -33 32 -33 32 -493 0 -494 0 54 -57z"/>
</g>
</svg>
